<svg width="700" height="192" viewBox="0 0 700 192" fill="none" xmlns="http://www.w3.org/2000/svg">
<rect width="192" height="192" fill="#15A1BF"/>
<path fill-rule="evenodd" clip-rule="evenodd" d="M46.3145 80.0947C56.2923 37.432 89.1601 26.257 135.198 34.2585C135.888 34.3622 136.572 34.4849 137.253 34.6273C104.845 15.5141 62.6538 22.5234 38.129 52.9033C31.5761 61.0186 26.8876 70.0639 24 79.5033C32.7427 74.7921 40.285 74.6083 46.3145 80.0947ZM80.0229 124.828C68.5536 118.438 53.1681 93.8699 67.8543 66.4616C82.8373 38.4994 116.809 34.3669 127.857 35.361C118.487 35.361 90.5475 45.0879 84.2189 70.2959C81.5093 81.0888 82.1209 98.2722 83.1 107.787C83.6553 113.183 82.5405 121.562 80.0229 124.828ZM112.677 66.0355C154.357 97.7042 122.188 160.899 64.2252 157.21C61.4038 157.398 58.6494 157.292 55.9632 156.889C102.001 164.891 134.52 153.851 144.753 111.421C145.413 106.552 145.666 101.309 145.514 95.6953C145.361 90.0805 144.046 83.7261 141.567 76.6344C138.792 68.69 135.407 63.1882 132.335 60.6752C128.347 57.413 117.855 55.1383 112.677 66.0355ZM111.977 67.1717C123.447 73.5621 138.833 98.1301 124.146 125.539C109.163 153.501 75.192 157.633 64.1423 156.64C73.5135 156.64 101.452 146.912 107.782 121.704C110.491 110.912 109.879 93.7279 108.9 84.2131C108.345 78.8166 109.46 70.4379 111.977 67.1717ZM56.8025 157.741C102.84 165.743 135.708 154.568 145.686 111.905C151.715 117.392 159.257 117.208 168 112.497C165.113 121.936 160.424 130.981 153.872 139.096C129.346 169.477 87.1559 176.486 54.747 157.373C55.428 157.515 56.1129 157.638 56.8025 157.741ZM127.775 34.7896C69.8125 31.1007 37.6427 94.2959 79.3235 125.965C74.1453 136.862 63.6531 134.587 59.6648 131.324C56.5924 128.812 53.2081 123.31 50.4328 115.366C47.9548 108.274 46.6389 101.92 46.4866 96.3048C46.3343 90.6904 46.5871 85.4486 47.2465 80.5798C57.4795 38.1491 89.9994 27.1089 136.037 35.1104C133.35 34.7081 130.596 34.6013 127.775 34.7896Z" fill="white"/>
<path d="M251.232 89.536C244.96 89.536 239.616 88.544 235.2 86.56C230.784 84.576 227.36 81.76 224.928 78.112C222.496 74.464 221.12 70.144 220.8 65.152L239.52 64.288C239.84 66.528 240.48 68.448 241.44 70.048C242.4 71.584 243.68 72.768 245.28 73.6C246.944 74.368 248.992 74.752 251.424 74.752C253.344 74.752 254.976 74.56 256.32 74.176C257.664 73.728 258.688 73.056 259.392 72.16C260.096 71.264 260.448 70.144 260.448 68.8C260.448 67.584 260.128 66.528 259.488 65.632C258.912 64.672 257.728 63.84 255.936 63.136C254.208 62.368 251.616 61.632 248.16 60.928C241.952 59.648 236.928 58.176 233.088 56.512C229.248 54.784 226.432 52.576 224.64 49.888C222.912 47.2 222.048 43.776 222.048 39.616C222.048 35.392 223.136 31.68 225.312 28.48C227.488 25.28 230.624 22.784 234.72 20.992C238.816 19.2 243.744 18.304 249.504 18.304C255.584 18.304 260.672 19.328 264.768 21.376C268.864 23.424 272.032 26.24 274.272 29.824C276.576 33.408 277.952 37.568 278.4 42.304L259.872 43.072C259.744 40.96 259.232 39.168 258.336 37.696C257.44 36.224 256.224 35.104 254.688 34.336C253.216 33.504 251.424 33.088 249.312 33.088C246.624 33.088 244.544 33.632 243.072 34.72C241.6 35.808 240.864 37.248 240.864 39.04C240.864 40.448 241.216 41.632 241.92 42.592C242.688 43.552 243.904 44.352 245.568 44.992C247.296 45.632 249.632 46.208 252.576 46.72C259.296 47.872 264.608 49.44 268.512 51.424C272.416 53.408 275.168 55.776 276.768 58.528C278.432 61.28 279.264 64.448 279.264 68.032C279.264 72.448 278.144 76.288 275.904 79.552C273.728 82.752 270.528 85.216 266.304 86.944C262.144 88.672 257.12 89.536 251.232 89.536ZM288.327 88V19.84H307.335L330.087 58.24V19.84H348.903V88H329.895L307.143 51.52V88H288.327ZM389.156 89.536C382.5 89.536 376.772 88.064 371.972 85.12C367.172 82.112 363.46 77.952 360.836 72.64C358.276 67.328 356.996 61.12 356.996 54.016C356.996 47.168 358.308 41.056 360.932 35.68C363.62 30.304 367.46 26.08 372.452 23.008C377.444 19.872 383.46 18.304 390.5 18.304C396.708 18.304 401.924 19.296 406.148 21.28C410.436 23.2 413.86 26.016 416.42 29.728C419.044 33.44 420.9 37.92 421.988 43.168L402.5 43.936C401.924 40.544 400.708 37.952 398.852 36.16C396.996 34.304 394.276 33.376 390.692 33.376C387.62 33.376 384.996 34.24 382.82 35.968C380.708 37.696 379.076 40.096 377.924 43.168C376.836 46.24 376.292 49.856 376.292 54.016C376.292 58.112 376.804 61.696 377.828 64.768C378.916 67.84 380.548 70.24 382.724 71.968C384.9 73.632 387.684 74.464 391.076 74.464C393.444 74.464 395.46 74.08 397.124 73.312C398.852 72.48 400.228 71.328 401.252 69.856C402.34 68.32 403.044 66.496 403.364 64.384H390.596V51.904H422.18V88H411.236L410.276 74.176L412.388 74.56C411.812 77.568 410.436 80.192 408.26 82.432C406.148 84.672 403.428 86.432 400.1 87.712C396.836 88.928 393.188 89.536 389.156 89.536ZM432.421 88V19.84H464.965C470.085 19.84 474.533 20.672 478.309 22.336C482.149 24 485.093 26.336 487.141 29.344C489.253 32.352 490.309 35.904 490.309 40C490.309 43.2 489.701 46.048 488.485 48.544C487.269 50.976 485.509 52.992 483.205 54.592C480.901 56.192 478.117 57.28 474.853 57.856L474.661 56.896C479.461 56.896 483.045 57.92 485.413 59.968C487.781 61.952 489.093 64.896 489.349 68.8L490.885 88H471.685L470.725 72.064C470.597 69.568 469.925 67.744 468.709 66.592C467.493 65.376 465.349 64.768 462.277 64.768H451.237V88H432.421ZM451.237 49.696H461.509C464.645 49.696 467.013 49.056 468.613 47.776C470.277 46.432 471.109 44.576 471.109 42.208C471.109 39.776 470.277 37.952 468.613 36.736C467.013 35.52 464.645 34.912 461.509 34.912H451.237V49.696Z" fill="#001E33"/>
<path d="M252.768 173.536C246.432 173.536 240.768 172.128 235.776 169.312C230.848 166.496 226.944 162.464 224.064 157.216C221.248 151.904 219.84 145.504 219.84 138.016C219.84 130.848 221.184 124.608 223.872 119.296C226.56 113.92 230.4 109.76 235.392 106.816C240.384 103.808 246.304 102.304 253.152 102.304C262.496 102.304 269.76 104.576 274.944 109.12C280.192 113.664 283.552 120.288 285.024 128.992L265.536 129.664C264.896 125.76 263.488 122.752 261.312 120.64C259.136 118.464 256.416 117.376 253.152 117.376C250.016 117.376 247.392 118.272 245.28 120.064C243.232 121.792 241.696 124.224 240.672 127.36C239.648 130.432 239.136 133.984 239.136 138.016C239.136 142.176 239.68 145.792 240.768 148.864C241.856 151.936 243.424 154.304 245.472 155.968C247.584 157.632 250.08 158.464 252.96 158.464C256.672 158.464 259.552 157.344 261.6 155.104C263.648 152.8 264.96 149.568 265.536 145.408L285.12 146.08C284.16 152.032 282.304 157.056 279.552 161.152C276.8 165.184 273.184 168.256 268.704 170.368C264.288 172.48 258.976 173.536 252.768 173.536ZM292.452 172V103.84H324.996C330.116 103.84 334.564 104.672 338.34 106.336C342.18 108 345.124 110.336 347.172 113.344C349.284 116.352 350.34 119.904 350.34 124C350.34 127.2 349.732 130.048 348.516 132.544C347.3 134.976 345.54 136.992 343.236 138.592C340.932 140.192 338.148 141.28 334.884 141.856L334.692 140.896C339.492 140.896 343.076 141.92 345.444 143.968C347.812 145.952 349.124 148.896 349.38 152.8L350.916 172H331.716L330.756 156.064C330.628 153.568 329.956 151.744 328.74 150.592C327.524 149.376 325.38 148.768 322.308 148.768H311.268V172H292.452ZM311.268 133.696H321.54C324.676 133.696 327.044 133.056 328.644 131.776C330.308 130.432 331.14 128.576 331.14 126.208C331.14 123.776 330.308 121.952 328.644 120.736C327.044 119.52 324.676 118.912 321.54 118.912H311.268V133.696ZM360.983 172V103.84H411.479V118.912H379.799V130.336H410.327V145.312H379.799V156.928H412.247V172H360.983ZM417.603 172L442.179 103.84H463.587L488.163 172H468.963L465.123 160.768H440.547L436.707 172H417.603ZM445.539 146.176H460.227L452.931 124.576L445.539 146.176ZM500.645 172V118.912H480.773V103.84H539.429V118.912H519.557V172H500.645ZM545.296 172V103.84H564.112V172H545.296ZM593.585 172L569.009 103.84H588.209L604.337 150.688L620.465 103.84H639.665L614.897 172H593.585ZM644.483 172V103.84H694.979V118.912H663.299V130.336H693.827V145.312H663.299V156.928H695.747V172H644.483Z" fill="#001E33"/>
</svg>
