<svg xmlns="http://www.w3.org/2000/svg" width="192" height="192" fill="none"><path fill="#7C8386" d="M0 0h192v192H0z"/><path fill="#fff" fill-rule="evenodd" d="M46.315 80.095c9.977-42.663 42.845-53.838 88.883-45.837.69.104 1.374.227 2.055.37-32.408-19.114-74.6-12.105-99.124 18.275A79.088 79.088 0 0 0 24 79.503c8.743-4.71 16.285-4.895 22.315.592Zm33.708 44.733c-11.47-6.39-26.855-30.958-12.169-58.366 14.983-27.963 48.955-32.095 60.003-31.101-9.37 0-37.31 9.727-43.638 34.935-2.71 10.793-2.098 27.976-1.119 37.491.555 5.396-.56 13.775-3.077 17.041Zm32.654-58.793c41.68 31.67 9.511 94.864-48.452 91.175a38.355 38.355 0 0 1-8.262-.321c46.038 8.002 78.557-3.038 88.79-45.468.66-4.869.913-10.112.761-15.726-.153-5.614-1.468-11.969-3.947-19.06-2.775-7.945-6.16-13.447-9.232-15.96-3.988-3.262-14.48-5.537-19.658 5.36Zm-.7 1.137c11.47 6.39 26.856 30.958 12.169 58.367-14.983 27.962-48.954 32.094-60.004 31.101 9.371 0 37.31-9.728 43.64-34.936 2.709-10.792 2.097-27.976 1.118-37.49-.555-5.397.56-13.776 3.077-17.042ZM56.802 157.74c46.038 8.002 78.906-3.173 88.884-45.836 6.029 5.487 13.571 5.303 22.314.592a79.087 79.087 0 0 1-14.128 26.599c-24.526 30.381-66.716 37.39-99.125 18.277.681.142 1.366.265 2.056.368ZM127.775 34.79c-57.963-3.69-90.132 59.506-48.452 91.175-5.178 10.897-15.67 8.622-19.658 5.359-3.073-2.512-6.457-8.014-9.232-15.958-2.478-7.092-3.794-13.446-3.946-19.061-.153-5.615.1-10.856.76-15.725 10.233-42.43 42.752-53.471 88.79-45.47a38.384 38.384 0 0 0-8.262-.32Z" clip-rule="evenodd"/></svg>